
<svg width="108" height="25" viewBox="0 0 108 25" fill="none" xmlns="http://www.w3.org/2000/svg">
<path d="M16.964 5.87691C17.3384 5.76656 17.5407 5.3584 17.3707 5.00695C15.9281 2.02397 12.9192 0.113281 9.31775 0.113281C6.75362 0.113281 4.64389 0.953551 2.92364 2.66641C1.23586 4.34695 0.391968 6.44762 0.391968 9.00074C0.391968 11.5539 1.23586 13.6545 2.92364 15.3674C4.64389 17.0479 6.75362 17.8882 9.31775 17.8882C12.9192 17.8882 15.9281 15.9775 17.3707 12.9945C17.5407 12.6431 17.3384 12.2349 16.964 12.1246L14.1634 11.2991C13.8422 11.2045 13.505 11.3658 13.3319 11.6525C12.5035 13.0246 11.027 13.8484 9.31775 13.8484C7.987 13.8484 6.85099 13.396 5.94218 12.4588C5.03338 11.5216 4.57897 10.3904 4.57897 9.00074C4.57897 7.61107 5.03338 6.47994 5.94218 5.54271C6.85099 4.60549 7.987 4.15304 9.31775 4.15304C11.027 4.15304 12.5035 4.97693 13.3319 6.34895C13.505 6.63566 13.8422 6.79701 14.1634 6.70234L16.964 5.87691Z" fill="#171D45"/>
<path d="M22.749 15.3674C24.4693 17.0479 26.579 17.8882 29.1432 17.8882C31.7073 17.8882 33.817 17.0479 35.5373 15.3674C37.2575 13.6545 38.1014 11.5539 38.1014 9.00074C38.1014 6.44762 37.2575 4.34695 35.5373 2.66641C33.817 0.953551 31.7073 0.113281 29.1432 0.113281C26.579 0.113281 24.4693 0.953551 22.749 2.66641C21.0612 4.34695 20.2174 6.44762 20.2174 9.00074C20.2174 11.5539 21.0612 13.6545 22.749 15.3674ZM25.7676 5.54271C26.6764 4.60549 27.8124 4.15304 29.1432 4.15304C30.4739 4.15304 31.6099 4.60549 32.5187 5.54271C33.4275 6.47994 33.8819 7.61107 33.8819 9.00074C33.8819 10.3904 33.4275 11.5216 32.5187 12.4588C31.6099 13.396 30.4739 13.8484 29.1432 13.8484C27.8124 13.8484 26.6764 13.396 25.7676 12.4588C24.8588 11.5216 24.4044 10.3904 24.4044 9.00074C24.4044 7.61107 24.8588 6.47994 25.7676 5.54271Z" fill="#171D45"/>
<path d="M44.2717 17.4034C44.6404 17.4034 44.9393 17.1045 44.9393 16.7357V7.51411C44.9393 5.47808 46.4973 3.95913 48.4772 3.95913C50.4571 3.95913 51.9826 5.47808 51.9826 7.51411V16.7357C51.9826 17.1045 52.2815 17.4034 52.6502 17.4034H55.3721C55.7409 17.4034 56.0398 17.1045 56.0398 16.7357V7.51411C56.0398 5.47808 57.5977 3.95913 59.5776 3.95913C61.5575 3.95913 63.083 5.47808 63.083 7.51411V16.7357C63.083 17.1045 63.3819 17.4034 63.7506 17.4034H66.4401C66.8088 17.4034 67.1077 17.1045 67.1077 16.7357V6.35067C67.1077 4.57317 66.4586 3.08654 65.1927 1.89077C63.9269 0.695006 62.3365 0.113281 60.3891 0.113281C58.4182 0.113281 56.829 0.739402 55.6591 2.01024C55.3158 2.38308 54.6867 2.38298 54.3447 2.00902C53.1831 0.738999 51.6214 0.113281 49.6781 0.113281C48.0931 0.113281 46.7578 0.589636 45.6886 1.55892C45.4216 1.801 44.9393 1.62627 44.9393 1.26582C44.9393 0.897023 44.6404 0.598052 44.2717 0.598052H41.5498C41.1811 0.598052 40.8821 0.897023 40.8821 1.26582V16.7357C40.8821 17.1045 41.1811 17.4034 41.5498 17.4034H44.2717Z" fill="#171D45"/>
<path d="M73.2754 24.6751C73.6441 24.6751 73.943 24.3761 73.943 24.0073V17.5391C73.943 16.9507 74.638 16.6085 75.1519 16.895C76.3322 17.5528 77.6234 17.8883 79.0388 17.8883C81.3757 17.8883 83.3232 17.048 84.9136 15.3674C86.504 13.6546 87.283 11.5539 87.283 9.00078C87.283 6.44766 86.504 4.34698 84.9136 2.66644C83.3232 0.953582 81.3757 0.113309 79.0388 0.113309C77.3458 0.113309 75.8304 0.593236 74.4701 1.53076C74.2522 1.68101 73.943 1.53065 73.943 1.26585C73.943 0.897051 73.6441 0.59808 73.2754 0.59808H70.5534C70.1847 0.59808 69.8858 0.897052 69.8858 1.26585V24.0073C69.8858 24.3761 70.1847 24.6751 70.5534 24.6751H73.2754ZM81.7328 5.54275C82.6091 6.47997 83.0635 7.61111 83.0635 9.00078C83.0635 10.3905 82.6091 11.5216 81.7328 12.4588C80.8564 13.396 79.7853 13.8485 78.5195 13.8485C77.2536 13.8485 76.1825 13.396 75.3062 12.4588C74.4298 11.5216 74.0079 10.3905 74.0079 9.00078C74.0079 7.61111 74.4298 6.47997 75.3062 5.54275C76.1825 4.60552 77.2536 4.15307 78.5195 4.15307C79.7853 4.15307 80.8564 4.60552 81.7328 5.54275Z" fill="#171D45"/>
<path d="M92.5938 15.3674C94.314 17.048 96.4237 17.8883 98.9879 17.8883C101.552 17.8883 103.662 17.048 105.382 15.3674C107.102 13.6546 107.946 11.5539 107.946 9.00078C107.946 6.44766 107.102 4.34698 105.382 2.66644C103.662 0.953582 101.552 0.113309 98.9879 0.113309C96.4237 0.113309 94.314 0.953582 92.5938 2.66644C90.906 4.34698 90.0621 6.44766 90.0621 9.00078C90.0621 11.5539 90.906 13.6546 92.5938 15.3674ZM95.6123 5.54275C96.5211 4.60552 97.6571 4.15307 98.9879 4.15307C100.319 4.15307 101.455 4.60552 102.363 5.54275C103.272 6.47997 103.727 7.61111 103.727 9.00078C103.727 10.3905 103.272 11.5216 102.363 12.4588C101.455 13.396 100.319 13.8485 98.9879 13.8485C97.6571 13.8485 96.5211 13.396 95.6123 12.4588C94.7035 11.5216 94.2491 10.3905 94.2491 9.00078C94.2491 7.61111 94.7035 6.47997 95.6123 5.54275Z" fill="#171D45"/>
</svg>

