
<svg width="127" height="48" viewBox="0 0 127 48" fill="none" xmlns="http://www.w3.org/2000/svg">
<rect width="127" height="48" rx="8" fill="#1551E5"/>
<mask id="mask0_1216_533" style="mask-type:alpha" maskUnits="userSpaceOnUse" x="24" y="12" width="24" height="24">
<path fill-rule="evenodd" clip-rule="evenodd" d="M27 19C27 18.448 27.448 18 28 18C28.552 18 29 18.448 29 19C29 19.552 28.552 20 28 20C27.448 20 27 19.552 27 19ZM27 24C27 23.448 27.448 23 28 23C28.552 23 29 23.448 29 24C29 24.552 28.552 25 28 25C27.448 25 27 24.552 27 24ZM28 28C27.448 28 27 28.448 27 29C27 29.552 27.448 30 28 30C28.552 30 29 29.552 29 29C29 28.448 28.552 28 28 28ZM31.9355 23H44.0645C44.5795 23 45.0005 23.421 45.0005 23.936V24.064C45.0005 24.579 44.5795 25 44.0645 25H31.9355C31.4205 25 31.0005 24.579 31.0005 24.064V23.936C31.0005 23.421 31.4205 23 31.9355 23ZM44.0645 28H31.9355C31.4205 28 31.0005 28.421 31.0005 28.936V29.064C31.0005 29.579 31.4205 30 31.9355 30H44.0645C44.5795 30 45.0005 29.579 45.0005 29.064V28.936C45.0005 28.421 44.5795 28 44.0645 28ZM31.9355 18H44.0645C44.5795 18 45.0005 18.421 45.0005 18.936V19.064C45.0005 19.579 44.5795 20 44.0645 20H31.9355C31.4205 20 31.0005 19.579 31.0005 19.064V18.936C31.0005 18.421 31.4205 18 31.9355 18Z" fill="#071435"/>
</mask>
<g mask="url(#mask0_1216_533)">
<rect width="24" height="24" transform="translate(24 12)" fill="white"/>
</g>
<path d="M61.5051 29V19.2H63.8291L66.4051 23.344L68.9811 19.2H71.3051V29H69.1631V22.602L66.4051 26.788H66.3491L63.6191 22.644V29H61.5051ZM76.9914 29.168C75.8527 29.168 74.9147 28.8087 74.1774 28.09C73.4401 27.362 73.0714 26.4287 73.0714 25.29V25.262C73.0714 24.17 73.4214 23.246 74.1214 22.49C74.8214 21.734 75.7081 21.356 76.7814 21.356C77.9667 21.356 78.8721 21.748 79.4974 22.532C80.1227 23.316 80.4354 24.282 80.4354 25.43C80.4354 25.5233 80.4261 25.71 80.4074 25.99H75.1854C75.2881 26.466 75.4981 26.83 75.8154 27.082C76.1327 27.334 76.5341 27.46 77.0194 27.46C77.6634 27.46 78.2701 27.2033 78.8394 26.69L80.0574 27.768C79.3014 28.7013 78.2794 29.168 76.9914 29.168ZM75.1574 24.66H78.3634C78.2981 24.1747 78.1254 23.7873 77.8454 23.498C77.5747 23.2087 77.2201 23.064 76.7814 23.064C76.3427 23.064 75.9834 23.2087 75.7034 23.498C75.4234 23.778 75.2414 24.1653 75.1574 24.66ZM82.0213 29V21.496H84.1493V24.254H86.9353V21.496H89.0633V29H86.9353V26.2H84.1493V29H82.0213ZM93.0907 26.2V29H90.9627V21.496H93.0907V24.24H94.2807C94.5047 23.4 94.9667 22.7093 95.6667 22.168C96.3761 21.6267 97.1974 21.356 98.1307 21.356C99.2507 21.356 100.189 21.7293 100.945 22.476C101.701 23.2227 102.079 24.142 102.079 25.234V25.262C102.079 26.3447 101.696 27.2687 100.931 28.034C100.165 28.79 99.2227 29.168 98.1027 29.168C97.1601 29.168 96.3341 28.8927 95.6247 28.342C94.9154 27.782 94.4581 27.068 94.2527 26.2H93.0907ZM98.1307 27.334C98.6814 27.334 99.1247 27.138 99.4607 26.746C99.8061 26.354 99.9787 25.8687 99.9787 25.29V25.262C99.9787 24.702 99.7967 24.2167 99.4327 23.806C99.0781 23.3953 98.6347 23.19 98.1027 23.19C97.5521 23.19 97.1041 23.386 96.7587 23.778C96.4227 24.17 96.2547 24.6553 96.2547 25.234V25.262C96.2547 25.822 96.4321 26.3073 96.7867 26.718C97.1507 27.1287 97.5987 27.334 98.1307 27.334Z" fill="white"/>
</svg>
